D:\school\WTK\thesis\model\3dpredictsim\Results\batch_windlass\Pog_s1_tmt_aCst_d00_k500_WL30_ig24_act_TTC_GRF.mot
nRows=30
nColumns=19

name D:\school\WTK\thesis\model\3dpredictsim\Results\batch_windlass\Pog_s1_tmt_aCst_d00_k500_WL30_ig24_act_TTC_GRF.mot
datacolumns 19
datarows 30
range 0.5751738153 0.9087746282
endheader
time 	ground_force_vx	ground_force_vy	ground_force_vz	ground_force_px	ground_force_py	ground_force_pz	1_ground_force_vx	1_ground_force_vy	1_ground_force_vz	1_ground_force_px	1_ground_force_py	1_ground_force_pz	ground_torque_x	ground_torque_y	ground_torque_z	1_ground_torque_x	1_ground_torque_y	1_ground_torque_z
        0.5751738153	       85.1729953912	      404.7345687592	       -2.0389046754	        0.3584624129	        0.0000000000	        0.0338229223	      -42.1915864702	       29.9306041767	       -5.1921606826	        0.8791677656	        0.0000000000	       -0.0695692418	        0.0000000000	        0.0000000000	        0.0000000000	        0.0000000000	        0.0000000000	        0.0000000000	
        0.5866772916	       56.4360356299	      308.5582045645	        1.7670999130	        0.3668161298	        0.0000000000	        0.0294607050	     -101.8708352461	       86.6514069721	      -15.6911007436	        0.8951692862	        0.0000000000	       -0.0690477832	        0.0000000000	        0.0000000000	        0.0000000000	        0.0000000000	        0.0000000000	        0.0000000000	
        0.5981807679	       32.2529392149	      229.9245728761	       16.1191725763	        0.3761977456	        0.0000000000	        0.0244769609	     -144.8319910959	      254.5801393834	      -23.5507684310	        0.9098724858	        0.0000000000	       -0.0687812498	        0.0000000000	        0.0000000000	        0.0000000000	        0.0000000000	        0.0000000000	        0.0000000000	
        0.6096842442	       20.0985505466	      190.6332727570	       18.8531513997	        0.3773957984	        0.0000000000	        0.0236902981	     -103.6954127401	      568.4092158413	        9.7711472097	        0.9204294540	        0.0000000000	       -0.0667179570	        0.0000000000	        0.0000000000	        0.0000000000	        0.0000000000	        0.0000000000	        0.0000000000	
        0.6211877205	       12.5004753297	      139.0905573640	       16.6588898460	        0.3774666228	        0.0000000000	        0.0236775430	     -139.7804531990	      846.6138897943	       22.4433470725	        0.9318472161	        0.0000000000	       -0.0645068466	        0.0000000000	        0.0000000000	        0.0000000000	        0.0000000000	        0.0000000000	        0.0000000000	
        0.6326911968	       -4.6408522641	       74.2015549728	       15.3860387383	        0.3764543795	        0.0000000000	        0.0241594420	     -158.2210362188	      928.6760050101	       22.7710669817	        0.9369674119	        0.0000000000	       -0.0630526132	        0.0000000000	        0.0000000000	        0.0000000000	        0.0000000000	        0.0000000000	        0.0000000000	
        0.6441946731	      -16.9098521931	       19.2170219764	        3.6297194917	        0.3712454120	        0.0000000000	        0.0232303432	     -146.1725080833	      903.4372616414	       25.2052102691	        0.9399504127	        0.0000000000	       -0.0620824430	        0.0000000000	        0.0000000000	        0.0000000000	        0.0000000000	        0.0000000000	        0.0000000000	
        0.6556981494	       -3.1596087444	        2.7424155644	       -0.2668372567	        0.0000000000	        0.0000000000	        0.0000000000	     -129.4386740405	      849.4631603215	       25.5640122215	        0.9427937986	        0.0000000000	       -0.0614202350	        0.0000000000	        0.0000000000	        0.0000000000	        0.0000000000	        0.0000000000	        0.0000000000	
        0.6672016257	       -7.8411147808	        5.6821348625	       -0.7898265210	        0.0000000000	        0.0000000000	        0.0000000000	     -115.1260372412	      799.4429403727	       23.7936771015	        0.9454119032	        0.0000000000	       -0.0609942209	        0.0000000000	        0.0000000000	        0.0000000000	        0.0000000000	        0.0000000000	        0.0000000000	
        0.6787051020	       -4.5184362554	        2.8943803792	       -0.5061752939	        0.0000000000	        0.0000000000	        0.0000000000	     -101.6637566348	      760.3815385140	       22.6187794602	        0.9475938063	        0.0000000000	       -0.0607493743	        0.0000000000	        0.0000000000	        0.0000000000	        0.0000000000	        0.0000000000	        0.0000000000	
        0.6902085783	       -0.7891325917	        0.4658128048	       -0.0812777590	        0.0000000000	        0.0000000000	        0.0000000000	      -86.7085480333	      727.8785190166	       21.7122496040	        0.9495383377	        0.0000000000	       -0.0606334702	        0.0000000000	        0.0000000000	        0.0000000000	        0.0000000000	        0.0000000000	        0.0000000000	
        0.7017120547	       -0.5180556251	        0.2938531428	       -0.0478707523	        0.0000000000	        0.0000000000	        0.0000000000	      -72.8196650558	      695.7399940568	       21.4711580310	        0.9521794709	        0.0000000000	       -0.0604805462	        0.0000000000	        0.0000000000	        0.0000000000	        0.0000000000	        0.0000000000	        0.0000000000	
        0.7132155310	       -0.4907669025	        0.2720005506	       -0.0383958906	        0.0000000000	        0.0000000000	        0.0000000000	      -61.0629385409	      669.5864470687	       22.4097555331	        0.9560626117	        0.0000000000	       -0.0601896451	        0.0000000000	        0.0000000000	        0.0000000000	        0.0000000000	        0.0000000000	        0.0000000000	
        0.7247190073	       -0.3051917905	        0.1629310373	       -0.0220466860	        0.0000000000	        0.0000000000	        0.0000000000	      -52.7627115007	      648.0036462811	       23.1990774480	        0.9608830957	        0.0000000000	       -0.0597479187	        0.0000000000	        0.0000000000	        0.0000000000	        0.0000000000	        0.0000000000	        0.0000000000	
        0.7362224836	       -0.1699294541	        0.0869107953	       -0.0116959032	        0.0000000000	        0.0000000000	        0.0000000000	      -46.3330692629	      630.8643220737	       23.7072223717	        0.9660603920	        0.0000000000	       -0.0592165147	        0.0000000000	        0.0000000000	        0.0000000000	        0.0000000000	        0.0000000000	        0.0000000000	
        0.7477259599	       -0.1025927069	        0.0502071161	       -0.0069562325	        0.0000000000	        0.0000000000	        0.0000000000	      -40.6638900928	      617.4867303506	       23.8427267749	        0.9714560905	        0.0000000000	       -0.0586103925	        0.0000000000	        0.0000000000	        0.0000000000	        0.0000000000	        0.0000000000	        0.0000000000	
        0.7592294362	       -0.0730077927	        0.0342815888	       -0.0048817341	        0.0000000000	        0.0000000000	        0.0000000000	      -35.6413614890	      606.2820208963	       23.5726346595	        0.9769399436	        0.0000000000	       -0.0579416858	        0.0000000000	        0.0000000000	        0.0000000000	        0.0000000000	        0.0000000000	        0.0000000000	
        0.7707329125	       -0.0622382063	        0.0281956386	       -0.0040366280	        0.0000000000	        0.0000000000	        0.0000000000	      -31.0006240500	      596.3134817674	       22.8253494093	        0.9823209625	        0.0000000000	       -0.0572465005	        0.0000000000	        0.0000000000	        0.0000000000	        0.0000000000	        0.0000000000	        0.0000000000	
        0.7822363888	       -0.0636209540	        0.0279641262	       -0.0038971134	        0.0000000000	        0.0000000000	        0.0000000000	      -26.5791210918	      587.2774570498	       21.8794021993	        0.9875485421	        0.0000000000	       -0.0565362556	        0.0000000000	        0.0000000000	        0.0000000000	        0.0000000000	        0.0000000000	        0.0000000000	
        0.7937398651	       -0.0775214985	        0.0332153155	       -0.0043952364	        0.0000000000	        0.0000000000	        0.0000000000	      -23.3215650765	      580.0240222731	       21.1377379142	        0.9926181219	        0.0000000000	       -0.0558081515	        0.0000000000	        0.0000000000	        0.0000000000	        0.0000000000	        0.0000000000	        0.0000000000	
        0.8052433414	       -0.1087538821	        0.0455847735	       -0.0056491165	        0.0000000000	        0.0000000000	        0.0000000000	      -20.5451949115	      574.3484135963	       20.7139947741	        0.9974494066	        0.0000000000	       -0.0550837920	        0.0000000000	        0.0000000000	        0.0000000000	        0.0000000000	        0.0000000000	        0.0000000000	
        0.8167468177	       -0.1677748709	        0.0689617476	       -0.0079460535	        0.0000000000	        0.0000000000	        0.0000000000	      -17.8150812759	      569.3914366260	       20.5010056831	        1.0020482352	        0.0000000000	       -0.0543687639	        0.0000000000	        0.0000000000	        0.0000000000	        0.0000000000	        0.0000000000	        0.0000000000	
        0.8282502940	       -0.2689271071	        0.1086294189	       -0.0116389631	        0.0000000000	        0.0000000000	        0.0000000000	      -15.1542836845	      564.8393101141	       20.4453523278	        1.0064253633	        0.0000000000	       -0.0536651135	        0.0000000000	        0.0000000000	        0.0000000000	        0.0000000000	        0.0000000000	        0.0000000000	
        0.8397537703	       -0.4254578665	        0.1692479011	       -0.0169186115	        0.0000000000	        0.0000000000	        0.0000000000	      -12.5649554909	      560.5546066873	       20.5138710936	        1.0105741433	        0.0000000000	       -0.0529778680	        0.0000000000	        0.0000000000	        0.0000000000	        0.0000000000	        0.0000000000	        0.0000000000	
        0.8512572466	       -0.6395380955	        0.2511786755	       -0.0234696279	        0.0000000000	        0.0000000000	        0.0000000000	      -10.0215291421	      556.7141243327	       20.5451202589	        1.0144812491	        0.0000000000	       -0.0523148450	        0.0000000000	        0.0000000000	        0.0000000000	        0.0000000000	        0.0000000000	        0.0000000000	
        0.8627607229	       -0.8913498380	        0.3466154650	       -0.0300608759	        0.0000000000	        0.0000000000	        0.0000000000	       -7.5003459080	      553.5607902024	       20.4410777268	        1.0181101333	        0.0000000000	       -0.0516861016	        0.0000000000	        0.0000000000	        0.0000000000	        0.0000000000	        0.0000000000	        0.0000000000	
        0.8742641992	       -1.1444888708	        0.4419165410	       -0.0350052041	        0.0000000000	        0.0000000000	        0.0000000000	       -4.9497442575	      551.1813313684	       20.1086155634	        1.0214079915	        0.0000000000	       -0.0511019575	        0.0000000000	        0.0000000000	        0.0000000000	        0.0000000000	        0.0000000000	        0.0000000000	
        0.8857676755	       -1.3632715368	        0.5240173646	       -0.0368233710	        0.0000000000	        0.0000000000	        0.0000000000	       -2.0818120222	      550.7752397054	       19.5265192891	        1.0243776756	        0.0000000000	       -0.0505554777	        0.0000000000	        0.0000000000	        0.0000000000	        0.0000000000	        0.0000000000	        0.0000000000	
        0.8972711519	       -1.5252213547	        0.5847592630	       -0.0345995506	        0.0000000000	        0.0000000000	        0.0000000000	        1.4084769399	      552.9422610222	       18.5572626767	        1.0270127530	        0.0000000000	       -0.0500406515	        0.0000000000	        0.0000000000	        0.0000000000	        0.0000000000	        0.0000000000	        0.0000000000	
        0.9087746282	       -1.6344352972	        0.6258850761	       -0.0285801526	        0.0000000000	        0.0000000000	        0.0000000000	        5.6382227237	      558.1428810351	       17.6868784789	        1.0293958581	        0.0000000000	       -0.0495284895	        0.0000000000	        0.0000000000	        0.0000000000	        0.0000000000	        0.0000000000	        0.0000000000	
